<?xml version="1.0" standalone="no"?>
<!DOCTYPE svg PUBLIC "-//W3C//DTD SVG 20010904//EN"
 "http://www.w3.org/TR/2001/REC-SVG-20010904/DTD/svg10.dtd">
<svg version="1.0" xmlns="http://www.w3.org/2000/svg"
 width="700.000000pt" height="700.000000pt" viewBox="0 0 700.000000 700.000000"
 preserveAspectRatio="xMidYMid meet">
<metadata>
Created by potrace 1.14, written by Peter Selinger 2001-2017
</metadata>
<g transform="translate(0.000000,700.000000) scale(0.100000,-0.100000)"
fill="#000000" stroke="none">
<path d="M1180 6994 c-203 -33 -386 -120 -523 -251 -340 -324 -394 -818 -133
-1212 88 -132 244 -263 390 -327 42 -18 72 -40 98 -72 l36 -45 -65 -81 c-36
-45 -71 -80 -77 -80 -6 1 -24 4 -39 7 -45 9 -76 -12 -126 -88 -90 -134 -214
-362 -271 -500 -88 -211 -172 -491 -196 -652 -3 -21 -7 -49 -10 -63 -2 -14 -7
-47 -10 -75 -4 -27 -8 -53 -10 -56 -8 -13 -18 -235 -18 -384 0 -150 9 -321 19
-369 2 -11 6 -39 9 -61 28 -231 101 -502 201 -746 307 -752 917 -1370 1665
-1688 250 -107 523 -183 785 -220 250 -36 655 -36 870 -1 33 5 78 12 100 15
269 39 640 162 902 301 557 294 994 717 1296 1250 138 245 273 595 321 834 3
14 7 36 10 50 11 48 16 75 21 110 3 19 8 46 10 60 6 28 10 64 22 180 10 92 10
483 1 563 -7 68 -34 103 -84 113 -30 5 -32 9 -39 57 -4 29 -8 60 -10 69 -19
104 -20 100 43 141 62 40 186 170 239 251 25 38 61 102 79 142 28 63 38 90 62
174 16 58 29 201 26 285 -6 189 -96 452 -178 517 -23 19 -91 24 -101 7 -4 -6
-30 14 -64 48 -31 32 -71 71 -88 85 -28 22 -32 31 -24 50 10 28 5 65 -13 93
-25 37 -218 122 -323 141 -21 4 -47 9 -58 11 -42 10 -233 11 -285 3 -30 -5
-68 -12 -85 -14 -45 -8 -164 -50 -222 -80 -29 -14 -56 -26 -61 -26 -17 0 -177
133 -173 144 12 30 7 83 -9 103 -43 53 -350 223 -556 306 -175 72 -411 145
-524 163 -19 3 -37 7 -40 9 -3 2 -25 6 -50 10 -25 4 -47 8 -50 10 -3 2 -34 6
-70 10 -36 4 -68 9 -71 11 -27 16 -483 25 -639 11 -162 -13 -351 -44 -499 -82
-110 -28 -144 -53 -145 -109 -1 -35 -1 -35 -91 -66 -49 -18 -97 -34 -106 -37
-14 -4 -16 8 -15 94 1 141 -9 212 -47 323 -45 131 -104 231 -193 328 -184 200
-404 301 -669 307 -66 1 -131 1 -145 -1z m242 -683 c164 -85 207 -293 88 -432
-104 -121 -298 -130 -409 -18 -149 151 -86 403 119 470 45 15 155 4 202 -20z"/>
</g>
</svg>
